<svg width="427" height="179" viewBox="0 0 427 179" fill="none" xmlns="http://www.w3.org/2000/svg">
<path d="M22.0922 118.2C20.6255 114.867 19.0255 111.133 17.2922 107C15.6922 102.867 13.9589 98.1333 12.0922 92.8C10.3589 87.4667 8.49219 81.4 6.49219 74.6C4.62552 67.6667 2.62552 59.7333 0.492188 50.8C2.35885 48.9333 4.82552 47.3333 7.89219 46C11.0922 44.5333 14.5589 43.8 18.2922 43.8C22.9589 43.8 26.8255 44.8 29.8922 46.8C32.9589 48.6667 35.2255 52.2667 36.6922 57.6L52.4922 112.6H53.2922C54.8922 108.067 56.4255 103.133 57.8922 97.8C59.4922 92.4667 61.0255 87 62.4922 81.4C63.9589 75.6667 65.2922 70 66.4922 64.4C67.8255 58.6667 68.9589 53.0667 69.8922 47.6C74.6922 45.0667 79.9589 43.8 85.6922 43.8C90.3589 43.8 94.2255 44.8 97.2922 46.8C100.359 48.8 101.892 52.2667 101.892 57.2C101.892 60.8 101.426 65 100.492 69.8C99.5589 74.4667 98.2922 79.4667 96.6922 84.8C95.2255 90.1333 93.4255 95.6667 91.2922 101.4C89.2922 107 87.1589 112.533 84.8922 118C82.6255 123.467 80.2922 128.667 77.8922 133.6C75.4922 138.4 73.1589 142.733 70.8922 146.6C67.1589 153.133 63.6922 158.467 60.4922 162.6C57.2922 166.733 54.2255 169.933 51.2922 172.2C48.3589 174.6 45.4255 176.2 42.4922 177C39.5589 177.933 36.4922 178.4 33.2922 178.4C27.6922 178.4 23.1589 176.733 19.6922 173.4C16.2255 170.067 14.1589 165.733 13.4922 160.4C17.7589 157.067 22.0255 153.333 26.2922 149.2C30.5589 145.2 34.4255 141.067 37.8922 136.8C35.6255 136.133 33.1589 134.6 30.4922 132.2C27.9589 129.667 25.1589 125 22.0922 118.2ZM116.248 18.8C116.248 13.7333 117.915 9.46666 121.248 5.99999C124.715 2.53333 129.248 0.799995 134.848 0.799995C140.448 0.799995 144.915 2.53333 148.248 5.99999C151.715 9.46666 153.448 13.7333 153.448 18.8C153.448 23.8667 151.715 28.1333 148.248 31.6C144.915 35.0667 140.448 36.8 134.848 36.8C129.248 36.8 124.715 35.0667 121.248 31.6C117.915 28.1333 116.248 23.8667 116.248 18.8ZM151.848 142.8C150.382 143.067 148.182 143.4 145.248 143.8C142.448 144.333 139.582 144.6 136.648 144.6C133.715 144.6 131.048 144.4 128.648 144C126.382 143.6 124.448 142.8 122.848 141.6C121.248 140.4 119.982 138.8 119.048 136.8C118.248 134.667 117.848 131.933 117.848 128.6V47.2C119.315 46.9333 121.448 46.6 124.248 46.2C127.182 45.6667 130.115 45.4 133.048 45.4C135.982 45.4 138.582 45.6 140.848 46C143.248 46.4 145.248 47.2 146.848 48.4C148.448 49.6 149.648 51.2667 150.448 53.4C151.382 55.4 151.848 58.0667 151.848 61.4V142.8ZM255.494 114C255.494 124.133 251.694 132.067 244.094 137.8C236.494 143.533 225.294 146.4 210.494 146.4C204.894 146.4 199.694 146 194.894 145.2C190.094 144.4 185.96 143.2 182.494 141.6C179.16 139.867 176.494 137.733 174.494 135.2C172.627 132.667 171.694 129.667 171.694 126.2C171.694 123 172.36 120.333 173.694 118.2C175.027 115.933 176.627 114.067 178.494 112.6C182.36 114.733 186.76 116.667 191.694 118.4C196.76 120 202.56 120.8 209.094 120.8C213.227 120.8 216.36 120.2 218.494 119C220.76 117.8 221.894 116.2 221.894 114.2C221.894 112.333 221.094 110.867 219.494 109.8C217.894 108.733 215.227 107.867 211.494 107.2L205.494 106C193.894 103.733 185.227 100.2 179.494 95.4C173.894 90.4667 171.094 83.4667 171.094 74.4C171.094 69.4667 172.16 65 174.294 61C176.427 57 179.427 53.6667 183.294 51C187.16 48.3333 191.76 46.2667 197.094 44.8C202.56 43.3333 208.56 42.6 215.094 42.6C220.027 42.6 224.627 43 228.894 43.8C233.294 44.4667 237.094 45.5333 240.294 47C243.494 48.4667 246.027 50.4 247.894 52.8C249.76 55.0667 250.694 57.8 250.694 61C250.694 64.0667 250.094 66.7333 248.894 69C247.827 71.1333 246.427 72.9333 244.694 74.4C243.627 73.7333 242.027 73.0667 239.894 72.4C237.76 71.6 235.427 70.9333 232.894 70.4C230.36 69.7333 227.76 69.2 225.094 68.8C222.56 68.4 220.227 68.2 218.094 68.2C213.694 68.2 210.294 68.7333 207.894 69.8C205.494 70.7333 204.294 72.2667 204.294 74.4C204.294 75.8667 204.96 77.0667 206.294 78C207.627 78.9333 210.16 79.8 213.894 80.6L220.094 82C232.894 84.9333 241.96 89 247.294 94.2C252.76 99.2667 255.494 105.867 255.494 114ZM271.931 47.2C273.265 46.8 275.331 46.4 278.131 46C281.065 45.6 284.065 45.4 287.131 45.4C290.065 45.4 292.665 45.6 294.931 46C297.331 46.4 299.331 47.2 300.931 48.4C302.531 49.6 303.731 51.2667 304.531 53.4C305.465 55.4 305.931 58.0667 305.931 61.4V104.4C305.931 109.867 307.265 113.8 309.931 116.2C312.598 118.467 316.465 119.6 321.531 119.6C324.598 119.6 327.065 119.333 328.931 118.8C330.931 118.267 332.465 117.733 333.531 117.2V47.2C334.865 46.8 336.931 46.4 339.731 46C342.665 45.6 345.665 45.4 348.731 45.4C351.665 45.4 354.265 45.6 356.531 46C358.931 46.4 360.931 47.2 362.531 48.4C364.131 49.6 365.331 51.2667 366.131 53.4C367.065 55.4 367.531 58.0667 367.531 61.4V122.2C367.531 128.867 364.731 133.867 359.131 137.2C354.465 140.133 348.865 142.333 342.331 143.8C335.931 145.4 328.931 146.2 321.331 146.2C314.131 146.2 307.465 145.4 301.331 143.8C295.331 142.2 290.131 139.733 285.731 136.4C281.331 133.067 277.931 128.8 275.531 123.6C273.131 118.267 271.931 111.867 271.931 104.4V47.2ZM425.338 27C425.338 30.0667 425.271 34.5333 425.138 40.4C425.004 46.1333 424.738 52.4 424.338 59.2C423.938 65.8667 423.404 72.6 422.738 79.4C422.071 86.0667 421.271 91.8667 420.338 96.8C419.804 97.2 419.004 97.6 417.938 98C416.871 98.4 415.738 98.7333 414.538 99C413.338 99.2667 412.138 99.4667 410.938 99.6C409.738 99.7333 408.671 99.8 407.738 99.8C403.871 99.8 400.604 99.2 397.938 98C395.404 96.8 393.804 94.4667 393.138 91C392.471 87.9333 391.871 83.2667 391.338 77C390.938 70.7333 390.538 63.9333 390.138 56.6C389.738 49.2667 389.404 42 389.138 34.8C389.004 27.6 388.938 21.4667 388.938 16.4C391.604 14.9333 394.604 13.8 397.938 13C401.404 12.0667 404.804 11.6 408.138 11.6C413.604 11.6 417.804 12.8667 420.738 15.4C423.804 17.9333 425.338 21.8 425.338 27ZM388.538 127.8C388.538 122.333 390.204 117.867 393.538 114.4C397.004 110.8 401.738 109 407.738 109C413.738 109 418.404 110.8 421.738 114.4C425.204 117.867 426.938 122.333 426.938 127.8C426.938 133.267 425.204 137.8 421.738 141.4C418.404 144.867 413.738 146.6 407.738 146.6C401.738 146.6 397.004 144.867 393.538 141.4C390.204 137.8 388.538 133.267 388.538 127.8Z" fill="white"/>
</svg>
