<svg width="103" height="44" viewBox="0 0 103 44" fill="none" xmlns="http://www.w3.org/2000/svg">
<path d="M5.22213 29.048C4.87013 28.248 4.48613 27.352 4.07013 26.36C3.68613 25.368 3.27013 24.232 2.82213 22.952C2.40613 21.672 1.95813 20.216 1.47813 18.584C1.03013 16.92 0.550125 15.016 0.0381251 12.872C0.486125 12.424 1.07813 12.04 1.81413 11.72C2.58213 11.368 3.41413 11.192 4.31013 11.192C5.43013 11.192 6.35813 11.432 7.09413 11.912C7.83013 12.36 8.37413 13.224 8.72613 14.504L12.5181 27.704H12.7101C13.0941 26.616 13.4621 25.432 13.8141 24.152C14.1981 22.872 14.5661 21.56 14.9181 20.216C15.2701 18.84 15.5901 17.48 15.8781 16.136C16.1981 14.76 16.4701 13.416 16.6941 12.104C17.8461 11.496 19.1101 11.192 20.4861 11.192C21.6061 11.192 22.5341 11.432 23.2701 11.912C24.0061 12.392 24.3741 13.224 24.3741 14.408C24.3741 15.272 24.2621 16.28 24.0381 17.432C23.8141 18.552 23.5101 19.752 23.1261 21.032C22.7741 22.312 22.3421 23.64 21.8301 25.016C21.3501 26.36 20.8381 27.688 20.2941 29C19.7501 30.312 19.1901 31.56 18.6141 32.744C18.0381 33.896 17.4781 34.936 16.9341 35.864C16.0381 37.432 15.2061 38.712 14.4381 39.704C13.6701 40.696 12.9341 41.464 12.2301 42.008C11.5261 42.584 10.8221 42.968 10.1181 43.16C9.41413 43.384 8.67813 43.496 7.91013 43.496C6.56613 43.496 5.47813 43.096 4.64613 42.296C3.81413 41.496 3.31813 40.456 3.15813 39.176C4.18213 38.376 5.20613 37.48 6.23013 36.488C7.25413 35.528 8.18213 34.536 9.01413 33.512C8.47013 33.352 7.87813 32.984 7.23813 32.408C6.63013 31.8 5.95813 30.68 5.22213 29.048ZM27.8196 5.192C27.8196 3.976 28.2196 2.952 29.0196 2.12C29.8516 1.288 30.9396 0.871999 32.2836 0.871999C33.6276 0.871999 34.6996 1.288 35.4996 2.12C36.3316 2.952 36.7476 3.976 36.7476 5.192C36.7476 6.408 36.3316 7.432 35.4996 8.264C34.6996 9.096 33.6276 9.512 32.2836 9.512C30.9396 9.512 29.8516 9.096 29.0196 8.264C28.2196 7.432 27.8196 6.408 27.8196 5.192ZM36.3636 34.952C36.0116 35.016 35.4836 35.096 34.7796 35.192C34.1076 35.32 33.4196 35.384 32.7156 35.384C32.0116 35.384 31.3716 35.336 30.7956 35.24C30.2516 35.144 29.7876 34.952 29.4036 34.664C29.0196 34.376 28.7156 33.992 28.4916 33.512C28.2996 33 28.2036 32.344 28.2036 31.544V12.008C28.5556 11.944 29.0676 11.864 29.7396 11.768C30.4436 11.64 31.1476 11.576 31.8516 11.576C32.5556 11.576 33.1796 11.624 33.7236 11.72C34.2996 11.816 34.7796 12.008 35.1636 12.296C35.5476 12.584 35.8356 12.984 36.0276 13.496C36.2516 13.976 36.3636 14.616 36.3636 15.416V34.952ZM61.2385 28.04C61.2385 30.472 60.3265 32.376 58.5025 33.752C56.6785 35.128 53.9905 35.816 50.4385 35.816C49.0945 35.816 47.8465 35.72 46.6945 35.528C45.5425 35.336 44.5505 35.048 43.7185 34.664C42.9185 34.248 42.2785 33.736 41.7985 33.128C41.3505 32.52 41.1265 31.8 41.1265 30.968C41.1265 30.2 41.2865 29.56 41.6065 29.048C41.9265 28.504 42.3105 28.056 42.7585 27.704C43.6865 28.216 44.7425 28.68 45.9265 29.096C47.1425 29.48 48.5345 29.672 50.1025 29.672C51.0945 29.672 51.8465 29.528 52.3585 29.24C52.9025 28.952 53.1745 28.568 53.1745 28.088C53.1745 27.64 52.9825 27.288 52.5985 27.032C52.2145 26.776 51.5745 26.568 50.6785 26.408L49.2385 26.12C46.4545 25.576 44.3745 24.728 42.9985 23.576C41.6545 22.392 40.9825 20.712 40.9825 18.536C40.9825 17.352 41.2385 16.28 41.7505 15.32C42.2625 14.36 42.9825 13.56 43.9105 12.92C44.8385 12.28 45.9425 11.784 47.2225 11.432C48.5345 11.08 49.9745 10.904 51.5425 10.904C52.7265 10.904 53.8305 11 54.8545 11.192C55.9105 11.352 56.8225 11.608 57.5905 11.96C58.3585 12.312 58.9665 12.776 59.4145 13.352C59.8625 13.896 60.0865 14.552 60.0865 15.32C60.0865 16.056 59.9425 16.696 59.6545 17.24C59.3985 17.752 59.0625 18.184 58.6465 18.536C58.3905 18.376 58.0065 18.216 57.4945 18.056C56.9825 17.864 56.4225 17.704 55.8145 17.576C55.2065 17.416 54.5825 17.288 53.9425 17.192C53.3345 17.096 52.7745 17.048 52.2625 17.048C51.2065 17.048 50.3905 17.176 49.8145 17.432C49.2385 17.656 48.9505 18.024 48.9505 18.536C48.9505 18.888 49.1105 19.176 49.4305 19.4C49.7505 19.624 50.3585 19.832 51.2545 20.024L52.7425 20.36C55.8145 21.064 57.9905 22.04 59.2705 23.288C60.5825 24.504 61.2385 26.088 61.2385 28.04ZM65.1835 12.008C65.5035 11.912 65.9995 11.816 66.6715 11.72C67.3755 11.624 68.0955 11.576 68.8315 11.576C69.5355 11.576 70.1595 11.624 70.7035 11.72C71.2795 11.816 71.7595 12.008 72.1435 12.296C72.5275 12.584 72.8155 12.984 73.0075 13.496C73.2315 13.976 73.3435 14.616 73.3435 15.416V25.736C73.3435 27.048 73.6635 27.992 74.3035 28.568C74.9435 29.112 75.8715 29.384 77.0875 29.384C77.8235 29.384 78.4155 29.32 78.8635 29.192C79.3435 29.064 79.7115 28.936 79.9675 28.808V12.008C80.2875 11.912 80.7835 11.816 81.4555 11.72C82.1595 11.624 82.8795 11.576 83.6155 11.576C84.3195 11.576 84.9435 11.624 85.4875 11.72C86.0635 11.816 86.5435 12.008 86.9275 12.296C87.3115 12.584 87.5995 12.984 87.7915 13.496C88.0155 13.976 88.1275 14.616 88.1275 15.416V30.008C88.1275 31.608 87.4555 32.808 86.1115 33.608C84.9915 34.312 83.6475 34.84 82.0795 35.192C80.5435 35.576 78.8635 35.768 77.0395 35.768C75.3115 35.768 73.7115 35.576 72.2395 35.192C70.7995 34.808 69.5515 34.216 68.4955 33.416C67.4395 32.616 66.6235 31.592 66.0475 30.344C65.4715 29.064 65.1835 27.528 65.1835 25.736V12.008ZM102.001 7.16C102.001 7.896 101.985 8.968 101.953 10.376C101.921 11.752 101.857 13.256 101.761 14.888C101.665 16.488 101.537 18.104 101.377 19.736C101.217 21.336 101.025 22.728 100.801 23.912C100.673 24.008 100.481 24.104 100.225 24.2C99.969 24.296 99.697 24.376 99.409 24.44C99.121 24.504 98.833 24.552 98.545 24.584C98.257 24.616 98.001 24.632 97.777 24.632C96.849 24.632 96.065 24.488 95.425 24.2C94.817 23.912 94.433 23.352 94.273 22.52C94.113 21.784 93.969 20.664 93.841 19.16C93.745 17.656 93.649 16.024 93.553 14.264C93.457 12.504 93.377 10.76 93.313 9.032C93.281 7.304 93.265 5.832 93.265 4.616C93.905 4.264 94.625 3.992 95.425 3.8C96.257 3.576 97.073 3.464 97.873 3.464C99.185 3.464 100.193 3.768 100.897 4.376C101.633 4.984 102.001 5.912 102.001 7.16ZM93.169 31.352C93.169 30.04 93.569 28.968 94.369 28.136C95.201 27.272 96.337 26.84 97.777 26.84C99.217 26.84 100.337 27.272 101.137 28.136C101.969 28.968 102.385 30.04 102.385 31.352C102.385 32.664 101.969 33.752 101.137 34.616C100.337 35.448 99.217 35.864 97.777 35.864C96.337 35.864 95.201 35.448 94.369 34.616C93.569 33.752 93.169 32.664 93.169 31.352Z" fill="#413F74"/>
</svg>
